<svg xmlns="http://www.w3.org/2000/svg" viewBox="0 0 512 512" role="img" aria-label="Gerador de Curriculo CRJ">
  <!-- Este arquivo cria um icone maior para o site, usado por navegadores e atalhos. -->
  <!-- O visual mistura curriculo, oportunidade e identidade social do CRJ. -->
  <rect width="512" height="512" rx="112" fill="#f4eee6" />
  <circle cx="404" cy="108" r="42" fill="#d99a72" opacity="0.9" />
  <rect x="86" y="64" width="340" height="384" rx="42" fill="#8f4f38" />
  <path d="M154 106h176l54 54v246H154z" fill="#fff8ef" />
  <path d="M330 106v61h54z" fill="#e4c6ac" />
  <rect x="190" y="208" width="132" height="18" rx="9" fill="#8f4f38" />
  <rect x="190" y="257" width="176" height="18" rx="9" fill="#c47a55" />
  <rect x="190" y="306" width="145" height="18" rx="9" fill="#c47a55" />
  <circle cx="156" cy="216" r="14" fill="#d99a72" />
  <circle cx="156" cy="265" r="14" fill="#d99a72" />
  <circle cx="156" cy="314" r="14" fill="#d99a72" />
  <path
    d="M312 376c32-12 58-38 70-70"
    fill="none"
    stroke="#2f7d70"
    stroke-width="20"
    stroke-linecap="round"
  />
  <path d="M376 306h-43m43 0v43" fill="none" stroke="#2f7d70" stroke-width="20" stroke-linecap="round" />
  <text
    x="256"
    y="453"
    fill="#fff8ef"
    font-family="Arial, Helvetica, sans-serif"
    font-size="58"
    font-weight="900"
    text-anchor="middle"
    letter-spacing="8"
  >CRJ</text>
</svg>
